<svg id="Layer_1" data-name="Layer 1" xmlns="http://www.w3.org/2000/svg" viewBox="0 0 2000 2000"><title>instagram</title><path d="M666.72,1000c0-184.09,149.19-333.36,333.28-333.36S1333.36,815.91,1333.36,1000,1184.09,1333.36,1000,1333.36,666.72,1184.09,666.72,1000m-180.21,0c0,283.6,229.89,513.49,513.49,513.49S1513.49,1283.6,1513.49,1000,1283.6,486.51,1000,486.51,486.51,716.4,486.51,1000m927.3-533.84a120,120,0,1,0,120-120,120.05,120.05,0,0,0-120,120M596,1814c-97.5-4.44-150.48-20.68-185.7-34.41-46.69-18.17-80-39.82-115-74.8s-56.7-68.26-74.8-114.94c-13.73-35.22-30-88.21-34.41-185.7-4.85-105.41-5.82-137.08-5.82-404.12s1.05-298.63,5.82-404.12c4.44-97.5,20.76-150.4,34.41-185.7,18.17-46.69,39.82-80,74.8-115s68.26-56.7,115-74.8c35.22-13.73,88.21-30,185.7-34.41,105.41-4.85,137.08-5.82,404-5.82s298.63,1.05,404.12,5.82c97.5,4.44,150.4,20.76,185.7,34.41,46.69,18.09,80,39.82,115,74.8s56.62,68.34,74.8,115c13.73,35.22,30,88.21,34.41,185.7,4.85,105.49,5.82,137.08,5.82,404.12s-1,298.63-5.82,404.12c-4.44,97.5-20.76,150.48-34.41,185.7-18.17,46.69-39.82,80-74.8,114.94s-68.34,56.62-115,74.8c-35.22,13.73-88.21,30-185.7,34.41-105.41,4.85-137.08,5.82-404.12,5.82s-298.63-1-404-5.82M587.72,6.06C481.26,10.9,408.56,27.79,345,52.5,279.24,78,223.51,112.28,167.85,167.85S78,279.16,52.5,345C27.79,408.56,10.9,481.26,6.06,587.72,1.13,694.35,0,728.43,0,1000s1.13,305.65,6.06,412.28C10.9,1518.74,27.79,1591.44,52.5,1655c25.53,65.75,59.69,121.57,115.35,177.14S279.16,1921.89,345,1947.5c63.65,24.72,136.27,41.6,242.73,46.45,106.7,4.85,140.71,6.06,412.28,6.06s305.65-1.13,412.28-6.06c106.46-4.85,179.16-21.73,242.73-46.45,65.75-25.61,121.49-59.77,177.14-115.35s89.74-111.39,115.35-177.14c24.72-63.57,41.68-136.27,46.45-242.73,4.85-106.7,6-140.71,6-412.28s-1.13-305.65-6-412.28c-4.85-106.46-21.73-179.16-46.45-242.73-25.61-65.75-59.77-121.49-115.35-177.14S1720.76,78,1655.09,52.5c-63.65-24.72-136.35-41.68-242.73-46.45C1305.74,1.21,1271.65,0,1000.08,0S694.43,1.13,587.72,6.06"/></svg>