<svg id="Layer_1" data-name="Layer 1" xmlns="http://www.w3.org/2000/svg" viewBox="0 0 2001 2000"><title>pinterest</title><path d="M0,1000.1Q7.8,574.36,300.83,289.23T1000.1,0Q1437.54,7.8,1717,298.83T2000.2,1000.1q-7.8,421.84-300.83,709.07Q1406.24,1996,1000.1,2000q-140.71,0-281.23-43,27.3-42.9,54.61-97.61,31.2-66.31,78.21-250,11.7-50.71,35.2-136.81,27.3,46.8,93.81,86,175.82,81.91,371-15.6,203.12-117.31,281.23-363.24,70.21-257.73-17.6-478.45T1300.93,382.84q-285-81.91-554.66,17.6Q476.85,500,371.24,742.27C353,802.08,342,861.49,338,920.09a831.26,831.26,0,0,0,5.8,171.82q11.7,84,58.61,150.42c31.2,44.2,73,78.21,125,101.61q19.5,7.8,31.2,0,15.6-7.8,31.2-62.41c10.4-36.4,14.4-61.21,11.8-74.21-2.6-5.2-7.8-14.4-15.6-27.4Q504.15,1047,531.45,900.69t121-248q144.61-129,337.83-140.61t330,105.41q74.11,85.81,95.61,207c14.2,80.81,14.4,158.22,0,232.42a699,699,0,0,1-76.21,209q-97.81,152.42-230.42,156.22-78-3.9-127-60.61t-29.2-130.81q7.8-42.9,46.8-168t43-187.42q-11.7-148.51-136.81-152.42c-65.21,7.8-113.21,37.2-144.61,87.81s-48.2,108.81-50.81,173.82q11.7,113.41,35.2,156.22-42.9,175.82-66.41,281.23-7.8,27.3-43,168t-39,214.82v109.41q-277.23-129-437.44-373Q.1,1296.93,0,1000.1Z"/></svg>