<svg id="Layer_1" data-name="Layer 1" xmlns="http://www.w3.org/2000/svg" viewBox="0 0 5000 5147.9"><title>pittogramma</title><path d="M3656.63,156.33c117.94,111.29,176.92,268.55,45.66,380.15,131.26,261.89,334.49,498.1,308.18,825.62,78.63,170.26,334.18,301.52,235.89,517.75-157.26,0-163.92,170.26-189.92,281.55-117.94,150.92,157.26,537.41-137.6,635.7-183.58,39.32-439.13-6.34-498.1,235.89,39.31,176.92-78.63,439.12,163.92,517.75,484.78,59,904.25,0,1415.35,52.63-65.63,222.57-262.21,438.81-399.81,655-727.33,721-1782.18,1087.82-2804.69,780-701-157.26-1520.29-747-1795.5-1435l72-72.29,1389.34-26.32c170.58-85,85.29-307.86,72-445.47-13-393.15-543.75-189.92-609.38-543.75-39.32-249.21,111.6-537.41-143.95-734-52.63-294.86,334.18-406.47,281.55-708C1212.43,877,1343.37,693.75,1415.66,438.2c-137.92-65.63-26.31-222.89,45.66-308.18,412.81,78.63,812.62-235.89,1277.74-91.63,308.18,111.29,583.39,78.63,917.57,117.94"/></svg>