<svg id="Layer_1" data-name="Layer 1" xmlns="http://www.w3.org/2000/svg" viewBox="0 0 2000 1405"><title>youtube</title><path d="M828.31,1403.26c-380.89-7-511-13.32-590.95-29.8-54.1-10.95-101.11-35.25-135.58-70.5-26.64-26.68-47.83-67.38-64.27-123.86-14.1-47.05-19.59-86.2-27.42-181.82C-1.9,781.48-4.75,605,10.09,407.9,22.33,299,28.27,169.79,109.61,94.39,148,59.1,192.69,36.39,242.85,27,321.22,12.12,655.1.36,1000.74.36,1345.6.36,1680.22,12.12,1758.66,27c62.67,11.76,121.45,47,156,92.47,74.21,116.73,75.51,261.89,83,375.44,3.12,54.1,3.12,361.3,0,415.4-11.73,179.44-21.15,242.93-47.79,308.76-16.47,41.56-30.54,63.49-54.88,87.79a262.9,262.9,0,0,1-139.52,71.32c-329.61,24.79-609.5,30.17-927.16,25.08Zm504.75-721c-183.38-98-359-188.87-538.44-282.93V962c188.87-102.67,388-196.74,539.22-280.59l-.78.78Z"/></svg>