<?xml version="1.0" encoding="utf-8"?>
<!-- Generator: Adobe Illustrator 21.0.0, SVG Export Plug-In . SVG Version: 6.00 Build 0)  -->
<!DOCTYPE svg PUBLIC "-//W3C//DTD SVG 1.1//EN" "http://www.w3.org/Graphics/SVG/1.1/DTD/svg11.dtd">
<svg version="1.1" id="Layer_1" xmlns="http://www.w3.org/2000/svg" xmlns:xlink="http://www.w3.org/1999/xlink" x="0px" y="0px"
	 viewBox="0 0 5000 1333" style="enable-background:new 0 0 5000 1333;" xml:space="preserve">
<style type="text/css">
	.st0{fill:#6D6E70;}
</style>
<g>
	<g>
		<path class="st0" d="M1868.9,747.8c0,23.1-3.8,43.6-11.5,61.5c-7.6,18-18.2,33-31.9,45.4c-13.7,12.3-30.1,21.6-49.1,28.1
			c-19,6.4-39.2,9.5-60.5,9.5h-213.3V402.1H1706c33.1,0,61.4,5.9,85,17.6c23.5,11.8,41.2,28.4,53.2,49.8c12,21.4,18,46.3,18,74.5
			c0,23.8-5.9,43.8-17.5,60c-11.7,16.3-23.8,28.6-36.3,36.8c16.1,9.7,30.2,22.4,42.3,38.2C1862.9,694.9,1868.9,717.8,1868.9,747.8z
			 M1741.5,550.2c0-10.9-3.4-20.3-10.3-28.1c-6.8-7.8-17.8-11.7-33.1-11.7h-74.9V590h74.9c14.8,0,25.7-3.9,32.8-11.7
			C1737.9,570.5,1741.5,561.1,1741.5,550.2z M1748.5,740.8c0-11.8-3.5-21.9-10.4-30.2c-7-8.2-18.1-12.3-33.6-12.3h-81.4V784h81.4
			c15.2,0,26.4-4.2,33.4-12.7S1748.5,752.7,1748.5,740.8z"/>
		<path class="st0" d="M2295.8,892.3h-333.2V402.1h333.2v107.2H2083v82h181.9v107.2H2083V785h212.8V892.3z"/>
		<path class="st0" d="M2733.4,742.3c0,32-8.5,59.7-25.4,83c-17,23.3-39.8,41-68.6,52.9c-28.8,12-60.6,18-95.3,18
			c-40.6,0-75.9-4.8-105.9-14.5c-30-9.6-56.7-26.3-80-50.1l77.3-77.4c12.1,12.1,28.1,20.9,47.8,26.4c19.7,5.5,40.2,8.2,61.5,8.2
			c46.8,0,70.3-14.7,70.3-44.1c0-12.5-3.2-22.2-9.8-28.9c-6.5-6.7-17.2-11.1-32.2-13.2l-59.2-8.4c-43.5-6-76.3-20.5-98.5-43.3
			c-22.4-23.1-33.7-55.9-33.7-98.5c0-29.8,7.2-56.4,21.7-79.9s35.2-41.8,62.2-55c27-13.2,58.7-19.8,95-19.8c36.1,0,67.6,4.7,94.6,14
			c27,9.3,50.6,24.1,70.8,44.5l-75.6,75.7c-12.5-12.5-26.1-20.5-40.6-23.9c-14.6-3.4-32.1-5.1-52.5-5.1c-19.3,0-33.9,4.6-44,13.8
			c-10.1,9.2-15.2,19.8-15.2,31.6c0,8.7,3.2,16.3,9.8,22.9c7.6,7.6,18.8,12.4,33.6,14.5l59.2,8c43,6.3,75.2,19.8,96.5,40.7
			c12.8,12.3,22,27.2,27.7,44.8C2730.5,697.2,2733.4,718.1,2733.4,742.3z"/>
		<path class="st0" d="M3188,559.8c0,27.6-6.5,53.4-19.6,77.3c-13.2,24-32.2,43.4-57.4,58.2c-25.1,14.8-55.2,22.2-90.4,22.2h-73.6
			v174.8h-120.4V402.1h194.1c35.2,0,65.3,7.4,90.3,22c25.1,14.7,44.2,34,57.3,58C3181.4,506.1,3188,532,3188,559.8z M3067.6,560
			c0-8.7-2.1-16.9-6.3-24.5c-4.1-7.5-10.2-13.7-18.1-18.3c-8-4.6-17.3-6.9-27.9-6.9h-68.4v98.9h68.4c10.6,0,19.9-2.3,27.9-6.9
			c7.9-4.6,14-10.7,18.1-18.1C3065.5,576.7,3067.6,568.6,3067.6,560z"/>
		<path class="st0" d="M3623.6,647.2v16.5c0,27.4-0.9,50.9-2.9,70.6c-1.9,19.7-6.4,38.8-13.6,57.1c-7.2,18.4-18.1,35-32.9,49.8
			c-18.1,18.1-38.2,31.9-60,41.1s-47.5,14-77.1,14c-20,0-37.9-2.1-53.9-6.2c-16-4.1-30.8-10.2-44.3-18.3
			c-13.5-8-26.4-18.3-38.5-30.5c-21.5-21.6-35.2-45.9-41-73.3c-5.9-27.4-8.7-62.1-8.7-104.2v-16.5v-16.5c0-42.1,2.9-76.9,8.7-104.4
			c5.8-27.4,19.5-51.9,41-73.4c18.6-18.6,38.7-32.4,60.3-41.3c21.6-9,47.1-13.5,76.4-13.5c29.6,0,55.2,4.6,76.9,13.7
			c21.7,9,41.7,22.8,60.1,41.1c14.8,14.8,25.7,31.4,32.9,49.9c7.2,18.5,11.7,37.6,13.6,57.3c1.9,19.8,2.9,43.3,2.9,70.6V647.2z
			 M3503.2,647.2c0-41.7-1.4-70.1-4.2-85.4c-2.8-15.2-7.4-26.9-13.6-34.9c-4.5-6.3-11-11.5-19.7-15.5c-8.6-4-18.2-6-28.7-6
			c-10.3,0-19.6,2-27.9,5.9c-8.3,3.9-15,9.1-20.2,15.6c-4.1,5.1-7.4,11.5-9.9,19c-2.6,7.5-4.6,19.1-5.9,34.7
			c-1.4,15.6-2.1,37.8-2.1,66.7c0,28.7,0.7,50.8,2.1,66.4c1.3,15.6,3.3,27.1,5.9,34.5c2.6,7.4,5.9,13.7,9.9,18.8
			c11.4,14.8,27.4,22.2,48.1,22.2c20.8,0,37-7.4,48.4-22.2c6.2-8.7,10.8-20.4,13.6-35.2C3501.8,717.1,3503.2,688.9,3503.2,647.2z"/>
		<path class="st0" d="M4129.8,892.3h-140.2l-113-201.1l-41.3,47.4v153.6h-119.7V402.1h119.7v173.4l141.9-173.4h147.3l-167.5,198.3
			L4129.8,892.3z"/>
		<path class="st0" d="M4525.1,892.3h-333.2V402.1h333.2v107.2h-212.8v82h181.9v107.2h-181.9V785h212.8V892.3z"/>
		<path class="st0" d="M5000,892.3h-105.2l-157-246.5v246.5h-120.4V402.1h105.3l156.9,246.5V402.1H5000V892.3z"/>
	</g>
	<path class="st0" d="M1137.4,195.2C877.7-64.6,455.2-64.7,195.3,194.9l0,0.1l-0.1,0c-0.1,0-0.1,0.1-0.2,0.1l-8.6,8.6v0.2
		C66.1,328.7,0,492.4,0,666.2c0,178,69.3,345.4,195.2,471.3c125.8,125.9,293.2,195.2,471.3,195.2l0,0
		c177.9,0,345.1-69.2,470.9-194.9c0.1,0,0.1,0,0.1,0s0-0.1,0.1-0.1c0,0,0.1-0.1,0.1-0.1C1397.3,877.7,1397.2,455,1137.4,195.2
		 M1096.1,236.5c237,237.1,237.1,622.7,0.1,859.8c-199.8,199.6-524.7,199.6-724.4-0.2c-41.7-41.8-75.4-89.5-100.1-141.3
		c-0.4-0.8-0.9-1.6-1.2-2.5c-2.4-5-4.6-10.2-6.8-15.3c-1.2-2.9-2.5-5.7-3.7-8.5c-1.4-3.4-2.7-6.9-4-10.3c-1.7-4.5-3.5-9.1-5.2-13.7
		c-0.7-2.1-1.3-4.2-2-6.2c-2-6-4-11.9-5.8-18c-0.2-0.9-0.5-1.9-0.7-2.9c-2-7.1-4-14.2-5.7-21.4c-0.1-0.2-0.1-0.4-0.2-0.7
		c-32.9-135.7-9.8-282.3,69.2-402.6c0.2-0.3,0.4-0.7,0.6-1c3.9-5.9,8.1-11.7,12.3-17.5c0.9-1.2,1.7-2.5,2.6-3.8
		c3.7-4.9,7.5-9.8,11.3-14.7c1.6-1.9,3-3.9,4.6-5.8c3.6-4.5,7.5-8.8,11.3-13.2c1.9-2.1,3.7-4.3,5.6-6.4c5.7-6.3,11.7-12.6,17.8-18.7
		c3.7-3.7,7.4-7.3,11.3-10.8c0.1-0.1,0.2-0.2,0.3-0.3c3.3-3,6.6-5.8,9.9-8.6c0.8-0.6,1.5-1.3,2.2-2c2.9-2.3,5.8-4.5,8.7-6.7
		c1.3-1.1,2.7-2.2,4-3.2c2.4-1.8,4.8-3.4,7.3-5.1c2-1.4,3.9-2.8,6-4.1c1.8-1.3,3.8-2.4,5.7-3.6c2.7-1.7,5.3-3.4,8-5
		c1.4-0.8,2.7-1.5,4.1-2.3c3.3-1.9,6.6-3.8,10-5.6c0.8-0.4,1.6-0.8,2.4-1.2c4-2.1,8-4,12-5.9c0.3-0.1,0.6-0.3,0.9-0.4
		c18.7-8.6,38.1-15.3,57.8-20.1c0.6-0.2,1.2-0.2,1.7-0.4c4.3-1,8.7-2,13.1-2.8c1.9-0.4,3.8-0.7,5.8-1c3-0.5,6-1.1,9.1-1.5
		c4.7-0.7,9.4-1.3,14.2-1.7c0.3,0,0.5-0.1,0.8-0.1c10.5-1,21.1-1.6,31.8-1.6c85.8,0,166.5,33.4,227.1,94.1
		c42.6,42.6,70.7,94.3,84.4,148.8c-11.8-19.6-26.1-38.1-43-55c-53.6-53.7-125-83.2-200.9-83.2c-75.9,0-147.3,29.5-200.9,83.2v0l0,0
		c-148.1,148.1-148.1,388.9,0,537c71.7,71.7,167.1,111.2,268.4,111.2c101.5,0,196.8-39.5,268.5-111.2c7-7,13.7-14.1,20.3-21.3
		c202.3-223.8,195.6-570.6-20.1-786.3c-37.6-37.6-79.3-68.7-123.5-93.6c-2.2-1.3-4.5-2.5-6.8-3.8c-4.5-2.4-8.8-4.7-13.3-7
		c-1.1-0.6-2.1-1.1-3.1-1.7C943.7,117.6,1026.3,166.8,1096.1,236.5 M506.9,506.7L506.9,506.7c42.6-42.5,99.2-65.9,159.4-65.9
		c60.3,0,116.9,23.4,159.5,66.1c88,88,88,231.1,0,319.1c-42.6,42.5-99.1,65.9-159.2,65.9c-60.3,0.1-117-23.5-159.6-66
		C418.9,737.8,418.9,594.6,506.9,506.7 M58.5,666.2c0-162.1,63-314.4,177.3-429.1l0.6-0.5c4.8-4.8,9.8-9.5,14.8-14.1
		c1.3-1.2,2.5-2.5,3.8-3.6c4.1-3.7,8.3-7.3,12.5-10.9c2.3-2,4.6-4.1,7-6c3.3-2.7,6.8-5.3,10.1-7.9c3.5-2.7,6.9-5.4,10.4-8
		c2.4-1.7,4.8-3.4,7.2-5.1c4.7-3.3,9.3-6.7,14.1-9.8c1.3-0.9,2.7-1.7,4-2.6c5.9-3.8,11.9-7.6,18-11.2c0.2-0.1,0.4-0.2,0.6-0.3
		c87-51.2,186.1-74.5,284.1-70h0.5c7,0.3,13.9,0.9,20.9,1.5c1.3,0.1,2.5,0.2,3.8,0.3c7.6,0.7,15.1,1.6,22.6,2.7
		c0.6,0.1,1.2,0.1,1.8,0.2c7.8,1.2,15.6,2.5,23.3,3.9c0.3,0.1,0.7,0.1,1,0.2c7.6,1.5,15.2,3.1,22.7,5c0.5,0.1,1,0.2,1.6,0.4
		c6.9,1.7,13.8,3.6,20.6,5.5c1.2,0.4,2.4,0.6,3.6,1c5.9,1.7,11.7,3.7,17.6,5.6c2.1,0.7,4.3,1.4,6.6,2.2c4.5,1.6,9,3.3,13.4,5
		c3.5,1.3,7.1,2.6,10.6,4.1c2.8,1.1,5.6,2.4,8.4,3.7c5.2,2.2,10.3,4.4,15.4,6.8c0.8,0.4,1.7,0.8,2.5,1.2
		c51.7,24.8,99.5,58.4,141.2,100.2c193.5,193.5,199.6,504.6,18.2,705.5c-5.8,6.4-11.8,12.7-18,18.9
		c-60.7,60.7-141.4,94.1-227.1,94.1c-85.8,0-166.5-33.4-227.1-94.1c-42.6-42.6-70.7-94.3-84.3-148.9c11.7,19.7,26,38.2,43,55
		c53.6,53.7,125,83.3,200.9,83.2c75.8,0,147-29.5,200.6-83c0.1,0,0.1-0.1,0.2-0.1c0,0,0,0,0.1-0.1l0,0c0.1-0.1,0.2-0.1,0.2-0.2
		c1-0.9,1.9-1.9,2.8-2.8c1.4-1.4,2.7-3,4.1-4.4c2.8-2.9,5.5-5.8,8.2-8.7c1.3-1.5,2.5-3,3.9-4.5c3-3.5,5.9-6.9,8.8-10.4
		c0.8-1.1,1.6-2.1,2.4-3.2c3.1-4,6.3-8.1,9.3-12.3c0.4-0.5,0.7-1.1,1.1-1.6c105.7-148.2,92.1-355.9-40.7-488.8
		c-45.2-45.3-99.2-76.6-156.5-94.2c-0.6-0.2-1.3-0.4-1.9-0.6c-4.9-1.5-9.7-2.8-14.6-4c-1.1-0.3-2.2-0.6-3.4-0.9
		c-4.8-1.2-9.7-2.3-14.6-3.3c-1.1-0.3-2.2-0.5-3.4-0.8c-5.5-1.1-11.1-2-16.8-2.9c-0.4-0.1-0.9-0.2-1.3-0.2
		c-24.9-3.7-50-4.9-75.1-3.7c-0.1,0-0.3,0-0.4,0c-5.8,0.3-11.7,0.7-17.4,1.3c-4.7,0.4-9.2,1-13.8,1.6c-1.3,0.2-2.6,0.3-4,0.5
		c-42.8,6.1-83.7,19.4-121.6,39.3c0,0-0.2,0.1-0.2,0.2c-4.8,2.5-9.5,5.2-14.1,7.9c-0.9,0.5-1.7,0.9-2.5,1.4
		c-3.9,2.3-7.7,4.7-11.5,7.1c-1.6,1.1-3.2,2.1-4.9,3.1c-2.9,2-5.8,4.1-8.8,6.1c-2.3,1.6-4.7,3.2-6.9,4.9c-2.1,1.6-4.2,3.3-6.3,4.9
		c-2.9,2.3-5.9,4.5-8.8,6.9c-1.3,1-2.6,2.2-3.9,3.3c-3.6,3-7.1,6-10.6,9.1c-0.4,0.4-0.9,0.9-1.3,1.3c-4.1,3.7-8.2,7.6-12.1,11.6
		c-6.9,6.9-13.6,14-20.1,21.1c-1.9,2.1-3.7,4.3-5.5,6.4c-4.5,5.1-9,10.3-13.4,15.6c-1.5,1.9-2.9,3.8-4.4,5.7
		c-4.5,5.6-9,11.4-13.3,17.1c-0.8,1.1-1.6,2.3-2.3,3.3c-4.9,6.7-9.7,13.5-14.3,20.5c0,0,0,0.1-0.1,0.1
		c-61,92.4-93.9,200.6-93.9,313.9c0,64.8,10.9,127.9,31.4,187.4c0.2,0.7,0.5,1.4,0.7,2.1c2.4,6.7,4.9,13.2,7.4,19.7
		c0.9,2.4,1.7,4.7,2.7,7c1.9,4.7,4,9.3,6,13.9c1.9,4.2,3.6,8.4,5.5,12.6c1.2,2.4,2.4,4.7,3.6,7.2c27,55.6,63.5,107.8,109.6,154
		c44.9,44.9,95.6,80.6,149.5,107.4c-90.7-29.2-173.8-79.7-243.2-149C121.7,981.3,58.5,828.6,58.5,666.2 M547,698.8
		c-17.9,0-32.5-14.6-32.5-32.5c0-17.9,14.6-32.5,32.5-32.5h86.8V547c0-18,14.5-32.5,32.5-32.5c18,0,32.5,14.5,32.5,32.5v86.8h86.8
		c18,0,32.5,14.6,32.5,32.5c0,17.9-14.5,32.5-32.5,32.5h-86.8v86.8c0,18-14.5,32.5-32.5,32.5c-17.9,0-32.5-14.5-32.5-32.5v-86.8H547
		"/>
</g>
</svg>
