<svg id="Layer_1" data-name="Layer 1" xmlns="http://www.w3.org/2000/svg" viewBox="0 0 2462 2000"><title>twitter</title><path d="M1644.84.44V0h115.43l42.18,8.44Q1844.62,16.65,1879,30A544.73,544.73,0,0,1,1945.62,61,633.25,633.25,0,0,1,2004,97.23a359.29,359.29,0,0,1,46.61,38.62q20.42,20.64,63.7,10.65a852.09,852.09,0,0,0,93.23-27.75q49.94-17.76,98.78-40t59.49-28.19q10.43-6.21,11.1-6.66l.44-.67,2.22-1.11,2.22-1.11L2384,40l2.22-1.11.44-.67.67-.44.67-.44.44-.67,2.22-.67,2.22-.44-.44,3.33-.67,3.33-1.11,3.33-1.11,3.33-1.11,2.22-1.11,2.22-1.11,3.33a77.2,77.2,0,0,0-2.22,8.88q-1.11,5.55-21.09,44.4T2313,188.68q-30,40-53.72,60.38-24,20.64-31.74,28.86a95.28,95.28,0,0,1-18.87,15.54l-11.1,7.33-2.22,1.11-2.22,1.11-.44.67-.67.44-.67.44-.44.67-2.22,1.11-2.22,1.11-.44.67-.67.44-.67.44-.44.67-.44.67-.67.44-.67.44-.44.67h11.1l62.15-13.32A1112.25,1112.25,0,0,0,2374,266.37l59.93-20,6.66-2.22,3.33-1.11,2.22-1.11,2.22-1.11,2.22-1.11,2.22-1.11,4.44-.67,4.44-.44V242l-1.11.44-1.11.67-.44.67-.67.44-.67.44-.44.67-.44.67-.67.44-.67.44-.44.67-.44.67-.67.44-1.11,2.22-1.11,2.22-.67.44q-.44.67-28.19,37.74-27.75,37.29-30,37.74-2.22.67-6.22,6.66-3.77,6.21-47.06,49.5a1117.24,1117.24,0,0,1-84.79,77q-41.73,34-42.18,83.46-.67,49.28-5.11,111.43t-16.65,134.3q-12.21,72.14-37.74,163.15A1483.32,1483.32,0,0,1,2091,1132.08q-36.63,86.57-76.58,155.38T1941.18,1404q-33.3,47.72-67.7,89.9t-87,95q-52.83,52.61-57.71,57.71-5.1,4.88-43.51,36.4-38.18,31.74-82.13,63.48-43.73,31.52-80.36,52.61t-88.35,48.17A1051.08,1051.08,0,0,1,1323,1897.89q-59.93,23.31-126.53,43.29a1155.71,1155.71,0,0,1-128.75,31.08q-62.15,11.1-141,18.87l-78.8,7.77V2000H703.66v-1.11l-18.87-1.11q-18.87-1.11-31.08-2.22t-92.12-12.21q-79.91-11.1-125.42-22.2T300.78,1919q-89.9-31.08-153.83-62.82-63.71-31.52-79.91-40-16-8.21-36-20.42l-20-12.21-.44-.67-.67-.44-.67-.44-.44-.67-2.22-1.11-2.22-1.11-.44-.67-.67-.44-.67-.44-.44-.67-.44-.67-.67-.44H0v-4.44l2.22.44,2.22.67,10,1.11q10,1.11,54.38,3.33t94.34,0a992.57,992.57,0,0,0,102.11-10q52.17-7.77,123.2-26.64T519,1695.45q59.27-26.19,84.35-39.07,24.86-12.65,75.91-47.06l51.05-34.41.44-.67.67-.44.67-.44.44-.67.44-.67.67-.44.67-.44.44-.67,2.22-.67,2.22-.44.44-2.22.67-2.22.67-.44.44-.67-17.76-1.11q-17.76-1.11-34.41-2.22t-52.16-10q-35.51-8.88-76.58-26.64a590.39,590.39,0,0,1-79.91-42.18q-38.84-24.42-56.16-40.62-17.09-16-44.4-45.28a449.12,449.12,0,0,1-47.06-60.6q-20-31.08-38.18-71.7l-18.43-40.4-1.11-3.33-1.11-3.33-.67-2.22L273,1212l3.33.44,3.33.67,24.42,3.33q24.42,3.33,76.58,2.22t72.14-4.44q20-3.33,24.42-4.44l4.44-1.11,5.55-1.11,5.55-1.11.44-.67.67-.44.67-.44.44-.67-4.44-1.11-4.44-1.11-4.44-1.11-4.44-1.11-4.44-1.11q-4.44-1.11-15.54-4.44t-59.93-24.42q-48.83-21.09-77.69-41.07a536.51,536.51,0,0,1-55-43.73q-26-24-57-61.71t-55.49-87.68q-24.42-49.94-36.63-95.45a515.3,515.3,0,0,1-16-92.12l-4-46.61,2.22.44,2.22.67,2.22,1.11,2.22,1.11,2.22,1.11,2.22,1.11,34.41,15.54q34.41,15.54,85.46,26.64t61,12.21l10,1.11h20l-.44-.67-.67-.44-.67-.44-.44-.67-.44-.67-.67-.44-.67-.44-.44-.67L313,756.94l-2.22-1.11-.44-.67-.67-.44-.67-.44-.44-.67-2.22-1.11-2.22-1.11-.44-.67q-.67-.45-19.09-14.21-18.2-14-38.18-36.18t-40-46.61a360,360,0,0,1-35.52-52.16Q155.39,573.81,138.07,531a501.07,501.07,0,0,1-26-85.9,489,489,0,0,1-10-85.46q-1.11-42.18,2.22-72.14t13.32-67.7q10-37.73,28.86-79.91l18.87-42.18,1.11-3.33L167.59,91l.67-.44.44-.67.44-.67.67-.44.67.44.44.67.44.67L172,91l.67.44.44.67.44.67.67.44,1.11,2.22,1.11,2.22.67.44.44.67,30,33.3q30,33.3,71,74.36t45.5,42.62q4.44,1.77,11.1,10.21,6.66,8.21,44.4,39.29t98.78,72.14q61,41.06,135.41,81a1321.2,1321.2,0,0,0,159.82,72.14Q859,556,893.45,566t117.65,25.53q83.24,15.54,125.42,20t57.71,5.11l15.54.44-.44-3.33-.67-3.33-4.44-27.75q-4.44-27.75-4.44-77.69t7.77-92.12a545.69,545.69,0,0,1,23.31-85.46q15.54-43.29,30.41-69.48,15.1-26,39.51-59.27T1364,129.86q38.85-35.52,88.79-63.26T1545,24.42Q1587.13,10,1616,5.55T1644.84.44Z"/></svg>